<?xml version="1.0" encoding="UTF-8" standalone="no"?>
<!-- Created with Inkscape (http://www.inkscape.org/) -->

<svg
   width="37.527958mm"
   height="37.538013mm"
   version="1.1"
   viewBox="0 0 37.527958 37.538014"
   id="svg51"
   sodipodi:docname="Solid-Fuel_Rocket_Diagram.svg"
   xmlns:inkscape="http://www.inkscape.org/namespaces/inkscape"
   xmlns:sodipodi="http://sodipodi.sourceforge.net/DTD/sodipodi-0.dtd"
   xmlns="http://www.w3.org/2000/svg"
   xmlns:svg="http://www.w3.org/2000/svg"
   xmlns:rdf="http://www.w3.org/1999/02/22-rdf-syntax-ns#"
   xmlns:cc="http://creativecommons.org/ns#"
   xmlns:dc="http://purl.org/dc/elements/1.1/">
  <sodipodi:namedview
     id="namedview51"
     pagecolor="#ffffff"
     bordercolor="#000000"
     borderopacity="0.25"
     inkscape:showpageshadow="2"
     inkscape:pageopacity="0.0"
     inkscape:pagecheckerboard="0"
     inkscape:deskcolor="#d1d1d1"
     inkscape:document-units="mm"
     inkscape:zoom="1.5261945"
     inkscape:cx="46.193326"
     inkscape:cy="132.68296"
     inkscape:window-width="2560"
     inkscape:window-height="1351"
     inkscape:window-x="-9"
     inkscape:window-y="-9"
     inkscape:window-maximized="1"
     inkscape:current-layer="svg51" />
  <defs
     id="defs19">
    <radialGradient
       id="radialGradient1831"
       cx="-329.20001"
       cy="-256.59"
       r="3.6348"
       fx="-329.10999"
       fy="-256.06"
       gradientTransform="matrix(-0.8855525,0.89714978,-1.8825689,-1.8582333,-809.51629,-6.7544465)"
       gradientUnits="userSpaceOnUse">
      <stop
         stop-color="#fc7210"
         offset="0"
         id="stop16" />
      <stop
         stop-color="#fc7210"
         offset=".38419"
         id="stop17" />
      <stop
         stop-color="#fdd111"
         offset=".84605"
         id="stop18" />
      <stop
         stop-color="#fdd111"
         stop-opacity="0"
         offset="1"
         id="stop19" />
    </radialGradient>
  </defs>
  <metadata
     id="metadata19">
    <rdf:RDF>
      <cc:Work
         rdf:about="">
        <dc:format>image/svg+xml</dc:format>
        <dc:type
           rdf:resource="http://purl.org/dc/dcmitype/StillImage" />
        <dc:title />
      </cc:Work>
    </rdf:RDF>
  </metadata>
  <g
     transform="matrix(0.98005885,0,0,0.98005885,63.539203,-142.01922)"
     id="g29"
     inkscape:label="g29">
    <path
       d="m -40.345,176.54 c -0.21908,-0.21738 1.2201,-2.0105 3.214,-4.0043 1.994,-1.994 3.7873,-3.4334 4.0048,-3.2144 0.98459,-0.98458 8.31689,11.40233 6.20589,13.51333 -2.111,2.111 -14.40889,-5.31033 -13.42389,-6.29433 z"
       fill="url(#radialGradient1831)"
       id="path23"
       style="fill:url(#radialGradient1831)"
       inkscape:label="path23"
       sodipodi:nodetypes="cccscc" />
  </g>
  <g
     transform="matrix(0.7577423,-0.7577423,0.7577423,0.7577423,425.38673,36.998319)"
     id="g33">
    <path
       transform="scale(0.26458)"
       d="m -974.78,-1044.8 c 0,0 -10.189,20 -10.189,30.141 -0.004,1.3622 7.3951,2.4667 16.523,2.4668 9.1291,10e-5 16.529,-1.1045 16.525,-2.4668 0,-10.11 -10.111,-29.982 -10.172,-30.102 0.003,0.01 0.005,0.018 0.006,0.027 0,0.215 -2.845,0.5625 -6.3574,0.5625 -3.5124,0 -6.3586,-0.2372 -6.3574,-0.5625 0.002,-0.022 0.009,-0.044 0.0215,-0.066 z"
       fill="#3e3e3e"
       id="path32" />
    <path
       d="m -257.72,-276.41 c -0.2507,0.52747 -0.80441,1.8336 -1.2971,3.0458 -0.59804,1.4715 -1.147,3.1742 -1.2774,4.41 -0.0271,0.25689 0.13729,0.49501 0.38705,0.56071 0.14777,0.0388 0.33391,0.0912 0.6227,0.13435 0.22503,0.0337 0.43472,0.0246 0.48938,0.031 0.30104,0.0351 0.56878,-0.1923 0.58291,-0.49506 0.0669,-1.4252 0.183,-3.2057 0.66197,-4.8338 0.30531,-1.0378 0.68104,-2.113 0.8692,-2.7285 -0.44635,-0.0184 -0.8221,-0.0635 -1.0387,-0.12454 z"
       fill="#262625"
       id="path33" />
  </g>
  <g
     transform="matrix(0.7577423,-0.7577423,0.7577423,0.7577423,425.43574,37.037522)"
     id="g34">
    <path
       d="m -251.11,-276.05 c 2e-5,0.42278 -2.2967,0.76551 -5.1299,0.76551 -2.8332,0 -5.1299,-0.34273 -5.1299,-0.76551 2e-5,-0.42277 -2e-5,-0.01 0,-0.43265 2e-5,-0.42277 2.2968,-0.7655 5.1299,-0.7655 2.8332,0 5.1299,0.34273 5.1299,0.7655 2e-5,0.42278 -2e-5,0.01 0,0.43265 z"
       fill="#2e2e2e"
       id="path34" />
    <ellipse
       cx="-256.23001"
       cy="-276.48001"
       rx="5.1299"
       ry="0.76551002"
       fill="#4d4d4d"
       id="ellipse34" />
  </g>
  <g
     id="g1956"
     transform="matrix(0.17583896,0,0,0.17583896,-10.536235,-5.1263825)"
     style="display:inline">
    <ellipse
       id="path1917"
       style="opacity:1;fill:#00ccff;fill-opacity:1;fill-rule:evenodd;stroke:none;stroke-width:4;stroke-linejoin:miter;stroke-miterlimit:4;stroke-dasharray:none;stroke-dashoffset:0;stroke-opacity:1"
       cx="134.82291"
       cy="102.90385"
       rx="74.901619"
       ry="73.75" />
    <path
       id="path1934"
       d="m 134.82614,29.155231 c -16.73537,-0.06324 -33.41965,5.66608 -46.5625,16.03125 2.690372,1.785837 4.993494,-1.111382 6.87072,-1.716376 3.252296,3.792534 -2.507526,6.176723 -4.010593,8.71948 2.369841,2.480722 6.448116,2.963595 8.277557,6.136006 2.915056,5.129489 0.650306,11.19279 -0.287961,16.569611 -1.441705,6.769146 -2.697241,13.9451 -0.281917,20.658319 0.716369,4.528599 4.394654,6.900529 7.883334,9.063549 1.54981,3.36688 4.68353,5.5068 7.77269,7.38294 7.84588,4.30974 16.05612,8.67407 21.84439,15.6956 3.29524,3.04107 -1.29826,5.9976 -0.93499,9.48796 -0.6879,3.98127 1.74697,7.46354 4.7379,9.79115 2.85414,2.34559 6.35029,4.77253 6.70488,8.8082 0.40142,2.87733 -0.43058,6.08555 -2.62265,8.07364 -2.57501,-1.34007 -5.76136,3.39936 -7.79669,5.28537 -3.99323,3.61825 2.81036,5.43812 5.42997,3.81894 1.92368,-3.09416 5.92267,-4.07519 8.78382,-6.14339 2.53163,-1.8565 4.09319,-4.51918 7.67987,-3.0481 4.0971,-0.53455 6.22567,-4.62078 9.73672,-6.35819 2.87632,-2.14481 6.90133,-3.0345 8.96295,-6.09971 1.89299,-3.49013 6.85762,-3.82856 8.67958,-7.49378 2.41336,-3.96353 2.03082,-8.95263 4.173,-12.97734 -1.52686,-2.99309 -5.4818,-3.66545 -8.52114,-4.28636 -5.5001,-0.0662 -10.99604,-1.45187 -15.67426,-4.40651 -6.68066,-3.15611 -14.30497,-1.86112 -21.44313,-1.97503 -4.15792,-0.0682 -9.43138,0.59634 -12.07489,-3.43077 -2.42664,-2.48073 -2.57863,-5.98362 -2.59105,-9.10228 -3.04344,-3.80278 -5.12401,3.03083 -7.83403,2.03759 -1.53141,-2.87798 -1.33925,-7.14299 0.60021,-9.800984 4.53651,-2.707628 10.19198,-0.251581 14.06953,2.576064 2.02904,2.21621 7.8956,2.92821 4.36366,-1.40484 -2.42534,-3.667811 -1.22111,-8.610299 1.87416,-11.486006 4.27829,-3.753274 7.4844,-8.565771 9.7109,-13.775597 1.26498,-2.8951 5.47409,-4.122917 2.47534,-7.576959 -1.51283,-3.509078 -4.75477,-6.373252 -8.79643,-5.917725 -4.05706,-0.127253 -8.44354,0.783851 -11.26497,3.922701 -2.43538,2.231112 -2.68499,-0.574957 -0.67177,-1.959578 1.8125,-1.805056 -1.71547,-2.531472 1.35665,-3.753741 1.06245,-4.099067 -4.63555,-6.097226 -7.72462,-7.287837 -3.11011,-1.520483 -8.7136,0.662401 -9.6401,-3.82042 -1.5018,-2.757858 -4.94329,-4.308147 -5.91039,-7.236847 5.67323,-3.801226 12.46544,-5.423606 19.23271,-5.516387 7.40321,-0.248964 15.10774,-0.292361 22.12403,2.37155 2.21853,2.3611 4.58863,4.771473 8.00628,5.787122 3.39071,1.252263 5.06618,4.767737 8.01944,6.424226 3.09386,0.36564 8.13675,-4.712557 9.12552,0.553034 0.35479,4.421225 6.24903,6.873963 4.2363,11.803884 -0.79735,3.394865 2.13422,5.743152 4.15061,7.950357 4.42812,5.693736 6.85864,12.576327 8.69906,19.466437 2.59702,7.88442 6.43541,15.507516 12.32631,21.446136 2.03593,2.48537 1.01385,-4.80485 1.56924,-6.20139 1.13142,-21.976682 -8.43571,-44.117384 -25.10305,-58.474942 -13.60138,-11.982745 -31.6117,-18.683359 -49.7302,-18.610027 z M 63.826141,82.217728 c -2.706718,2.203041 -2.274559,7.414787 -3.237761,10.900277 -1.410842,10.225335 -0.577732,20.747315 2.39401,30.630975 1.491003,-3.79161 5.898488,-5.67936 6.06912,-10.13597 1.496359,-7.54967 1.335545,-15.600879 -1.555228,-22.813747 -1.479953,-2.514098 -0.656522,-7.447131 -3.670141,-8.581535 z m 22.9375,60.781252 c -3.564721,0.5419 -6.863757,2.79333 -9.083646,5.59111 -0.507004,3.63946 4.292828,5.78563 6.315664,8.44966 7.391043,6.73713 16.139591,12.00281 25.580481,15.30298 0.76235,-2.65136 -6.39102,-4.36328 -3.8125,-7 1.75245,-3.44802 -4.64579,-5.94323 -5.837083,-9.20808 -2.614797,-3.59217 -3.809335,-8.24252 -7.640571,-10.88566 -1.607194,-1.12548 -3.511757,-2.2087 -5.522345,-2.25001 z"
       style="display:inline;opacity:1;fill:#339933;fill-opacity:1;fill-rule:evenodd;stroke:none;stroke-width:4;stroke-linejoin:miter;stroke-miterlimit:4;stroke-dasharray:none;stroke-dashoffset:0;stroke-opacity:1" />
  </g>
</svg>
